<svg width="124" height="124" viewBox="0 0 124 124" fill="none" xmlns="http://www.w3.org/2000/svg">
<g filter="url(#filter0_di_9682_374)">
<path d="M2 52.2C2 34.2783 2 25.3175 5.48779 18.4723C8.55574 12.4511 13.4511 7.55574 19.4723 4.48779C26.3175 1 35.2783 1 53.2 1H70.8C88.7217 1 97.6825 1 104.528 4.48779C110.549 7.55574 115.444 12.4511 118.512 18.4723C122 25.3175 122 34.2783 122 52.2V69.8C122 87.7217 122 96.6825 118.512 103.528C115.444 109.549 110.549 114.444 104.528 117.512C97.6825 121 88.7217 121 70.8 121H53.2C35.2783 121 26.3175 121 19.4723 117.512C13.4511 114.444 8.55574 109.549 5.48779 103.528C2 96.6825 2 87.7217 2 69.8V52.2Z" fill="url(#paint0_linear_9682_374)" shape-rendering="crispEdges"/>
</g>
<path d="M77.4374 21C86.0353 21 90.3339 21.0003 93.6181 22.6452C96.507 24.0921 98.855 26.4009 100.327 29.2405C102 32.4687 102 36.6946 102 45.1463V76.8539C102 77.5909 101.999 78.2961 101.998 78.9714H22.0022C22.0012 78.2961 22 77.5909 22 76.8539V45.1463C22 36.6946 22.0003 32.4687 23.6734 29.2405C25.1452 26.4009 27.4936 24.0921 30.382 22.6452C33.666 21.0003 37.9652 21 46.563 21H77.4374Z" fill="url(#paint1_linear_9682_374)"/>
<path d="M22 78.9712H102C102 85.45 102 88.6894 101.021 91.2725C99.4909 95.3062 96.3059 98.4906 92.2722 100.021C89.6898 101 86.4504 101 79.9709 101H44.029C37.5499 101 34.3104 101 31.7277 100.021C27.694 98.4906 24.5093 95.3062 22.9794 91.2725C22 88.6894 22 85.45 22 78.9712Z" fill="url(#paint2_linear_9682_374)"/>
<path d="M34.6341 87.8259C33.8836 87.8259 33.2753 88.434 33.2753 89.1847C33.2753 89.9355 33.8836 90.5436 34.6341 90.5436V89.1847V87.8259ZM89.6661 90.5436C90.4168 90.5436 91.0249 89.9355 91.0249 89.1847C91.0249 88.434 90.4168 87.8259 89.6661 87.8259V89.1847V90.5436ZM78.1161 50.4585H76.7573C76.7573 58.7135 70.0654 65.4055 61.8104 65.4055V66.7643V68.1231C71.5662 68.1231 79.475 60.2144 79.475 50.4585H78.1161ZM61.8104 66.7643V65.4055C53.5554 65.4055 46.8634 58.7135 46.8634 50.4585H45.5046H44.1458C44.1458 60.2144 52.0545 68.1231 61.8104 68.1231V66.7643ZM45.5046 50.4585H46.8634C46.8634 42.2035 53.5554 35.5116 61.8104 35.5116V34.1528V32.7939C52.0545 32.7939 44.1458 40.7027 44.1458 50.4585H45.5046ZM61.8104 34.1528V35.5116C70.0654 35.5116 76.7573 42.2035 76.7573 50.4585H78.1161H79.475C79.475 40.7027 71.5662 32.7939 61.8104 32.7939V34.1528ZM59.7438 44.413L59.009 45.556L66.7063 50.5043L67.4411 49.3612L68.1759 48.2183L60.4786 43.27L59.7438 44.413ZM67.4411 51.5558L66.7063 50.4128L59.009 55.3611L59.7438 56.5041L60.4786 57.6471L68.1759 52.6988L67.4411 51.5558ZM57.7339 55.4068H59.0927V45.5103H57.7339H56.3751V55.4068H57.7339ZM59.7438 56.5041L59.009 55.3611C58.8424 55.4681 58.7098 55.5533 58.5947 55.6246C58.4789 55.6963 58.401 55.7412 58.3461 55.7698C58.2895 55.7993 58.2866 55.7957 58.3202 55.7857C58.3601 55.7738 58.4561 55.7513 58.5879 55.7606L58.4911 57.116L58.3943 58.4714C58.9169 58.5087 59.3455 58.3134 59.6008 58.1805C59.8667 58.042 60.174 57.8429 60.4786 57.6471L59.7438 56.5041ZM57.7339 55.4068H56.3751C56.3751 55.769 56.3738 56.135 56.4011 56.4336C56.4274 56.7202 56.4948 57.1864 56.8088 57.6058L57.8966 56.7914L58.9843 55.9771C59.0635 56.0828 59.0964 56.1758 59.108 56.2158C59.1177 56.2495 59.1132 56.249 59.1074 56.1854C59.1017 56.1238 59.0974 56.034 59.0951 55.8978C59.0928 55.7624 59.0927 55.6048 59.0927 55.4068H57.7339ZM58.4911 57.116L58.5879 55.7606C58.7452 55.7719 58.8899 55.8508 58.9843 55.9771L57.8966 56.7914L56.8088 57.6058C57.1867 58.1106 57.7653 58.4264 58.3943 58.4714L58.4911 57.116ZM67.4411 49.3612L66.7063 50.5043C66.8512 50.5974 66.9648 50.6705 67.0612 50.7348C67.1581 50.7995 67.2182 50.8425 67.2568 50.8726C67.3501 50.9454 67.2261 50.8747 67.1396 50.6701L68.3913 50.1412L69.643 49.6123C69.4584 49.1755 69.1433 48.8975 68.928 48.7296C68.7134 48.5622 68.4378 48.3866 68.1759 48.2183L67.4411 49.3612ZM67.4411 51.5558L68.1759 52.6988C68.4378 52.5305 68.7134 52.3549 68.928 52.1874C69.1433 52.0196 69.4584 51.7416 69.643 51.3047L68.3913 50.7759L67.1396 50.247C67.2261 50.0423 67.3501 49.9717 67.2568 50.0445C67.2182 50.0746 67.1581 50.1176 67.0612 50.1823C66.9648 50.2466 66.8512 50.3197 66.7063 50.4128L67.4411 51.5558ZM68.3913 50.1412L67.1396 50.6701C67.0825 50.5348 67.0825 50.3822 67.1396 50.247L68.3913 50.7759L69.643 51.3047C69.8715 50.7637 69.8715 50.1533 69.643 49.6123L68.3913 50.1412ZM59.7438 44.413L60.4786 43.27C60.174 43.0741 59.8667 42.8751 59.6008 42.7367C59.3455 42.6037 58.9169 42.4084 58.3943 42.4457L58.4911 43.801L58.5879 45.1564C58.4561 45.1658 58.3601 45.1433 58.3202 45.1314C58.2866 45.1213 58.2895 45.1178 58.3461 45.1473C58.401 45.1759 58.4789 45.2208 58.5947 45.2925C58.7098 45.3637 58.8424 45.4489 59.009 45.556L59.7438 44.413ZM57.7339 45.5103H59.0927C59.0927 45.3123 59.0928 45.1547 59.0951 45.0193C59.0974 44.883 59.1017 44.7933 59.1074 44.7317C59.1132 44.6681 59.1177 44.6676 59.108 44.7012C59.0964 44.7413 59.0635 44.8343 58.9843 44.94L57.8966 44.1256L56.8088 43.3113C56.4948 43.7307 56.4274 44.1968 56.4011 44.4835C56.3738 44.782 56.3751 45.1481 56.3751 45.5103H57.7339ZM58.4911 43.801L58.3943 42.4457C57.7653 42.4906 57.1867 42.8065 56.8088 43.3113L57.8966 44.1256L58.9843 44.94C58.8898 45.0662 58.7452 45.1452 58.5879 45.1564L58.4911 43.801ZM34.6341 89.1847V90.5436H89.6661V89.1847V87.8259H34.6341V89.1847Z" fill="#99F6E4"/>
<defs>
<filter id="filter0_di_9682_374" x="0" y="0" width="124" height="124" filterUnits="userSpaceOnUse" color-interpolation-filters="sRGB">
<feFlood flood-opacity="0" result="BackgroundImageFix"/>
<feColorMatrix in="SourceAlpha" type="matrix" values="0 0 0 0 0 0 0 0 0 0 0 0 0 0 0 0 0 0 127 0" result="hardAlpha"/>
<feOffset dy="1"/>
<feGaussianBlur stdDeviation="1"/>
<feComposite in2="hardAlpha" operator="out"/>
<feColorMatrix type="matrix" values="0 0 0 0 0.0392157 0 0 0 0 0.0496732 0 0 0 0 0.0705882 0 0 0 0.05 0"/>
<feBlend mode="normal" in2="BackgroundImageFix" result="effect1_dropShadow_9682_374"/>
<feBlend mode="normal" in="SourceGraphic" in2="effect1_dropShadow_9682_374" result="shape"/>
<feColorMatrix in="SourceAlpha" type="matrix" values="0 0 0 0 0 0 0 0 0 0 0 0 0 0 0 0 0 0 127 0" result="hardAlpha"/>
<feOffset dy="-2"/>
<feComposite in2="hardAlpha" operator="arithmetic" k2="-1" k3="1"/>
<feColorMatrix type="matrix" values="0 0 0 0 0.0392157 0 0 0 0 0.0496732 0 0 0 0 0.0705882 0 0 0 0.05 0"/>
<feBlend mode="normal" in2="shape" result="effect2_innerShadow_9682_374"/>
</filter>
<linearGradient id="paint0_linear_9682_374" x1="0.264732" y1="3.64068" x2="107.745" y2="129.643" gradientUnits="userSpaceOnUse">
<stop stop-color="white" stop-opacity="0.87"/>
<stop offset="1" stop-color="white" stop-opacity="0.75"/>
</linearGradient>
<linearGradient id="paint1_linear_9682_374" x1="22" y1="21" x2="102" y2="78.9714" gradientUnits="userSpaceOnUse">
<stop stop-color="#66D9C6"/>
<stop offset="1" stop-color="#009688"/>
</linearGradient>
<linearGradient id="paint2_linear_9682_374" x1="22" y1="78.9712" x2="33.2769" y2="119.924" gradientUnits="userSpaceOnUse">
<stop stop-color="#66D9C6"/>
<stop offset="1" stop-color="#009688"/>
</linearGradient>
</defs>
</svg>
